<svg xmlns="http://www.w3.org/2000/svg" width="600" height="800" viewBox="0 0 600 800">
  <rect width="600" height="800" fill="#FAF7F2"/>
  <rect x="20" y="20" width="560" height="760" fill="#F5EFE9" rx="8"/>
  <circle cx="300" cy="380" r="160" fill="#26201E"/>
  <g transform="translate(300, 360)">
    <!-- Crescent Moon -->
    <path d="M -20 -70 A 60 60 0 1 0 50 40 A 50 50 0 1 1 -20 -70 Z" fill="#E6C280"/>
    <!-- Stars -->
    <polygon points="60,-50 67,-35 83,-35 70,-25 75,-10 60,-20 45,-10 50,-25 37,-35 53,-35" fill="#FAF7F2"/>
    <polygon points="-70,20 -65,30 -53,30 -63,38 -59,50 -70,42 -81,50 -77,38 -87,30 -75,30" fill="#E6B8AF"/>
  </g>
  <text x="300" y="670" font-family="Georgia, serif" font-size="22" fill="#2C2523" text-anchor="middle">Celestial Star &amp; Moon Garland</text>
  <text x="300" y="700" font-family="sans-serif" font-size="14" fill="#C88A7E" text-anchor="middle">STARRY NIGHT DECOR</text>
</svg>
