<svg xmlns="http://www.w3.org/2000/svg" width="600" height="800" viewBox="0 0 600 800">
  <rect width="600" height="800" fill="#FAF7F2"/>
  <rect x="20" y="20" width="560" height="760" fill="#F5EFE9" rx="8"/>
  <circle cx="300" cy="380" r="160" fill="#EBF2EC"/>
  <!-- Monstera Leaf -->
  <g transform="translate(300, 360)">
    <path d="M 0 -130 C -90 -60, -90 90, 0 140 C 90 90, 90 -60, 0 -130 Z" fill="#88A088"/>
    <!-- Cutouts -->
    <ellipse cx="-35" cy="-20" rx="14" ry="30" fill="#EBF2EC" transform="rotate(-20 -35 -20)"/>
    <ellipse cx="35" cy="-20" rx="14" ry="30" fill="#EBF2EC" transform="rotate(20 35 -20)"/>
    <ellipse cx="-45" cy="40" rx="12" ry="25" fill="#EBF2EC" transform="rotate(-30 -45 40)"/>
    <ellipse cx="45" cy="40" rx="12" ry="25" fill="#EBF2EC" transform="rotate(30 45 40)"/>
    <path d="M 0 -130 L 0 140" stroke="#668066" stroke-width="4"/>
  </g>
  <text x="300" y="670" font-family="Georgia, serif" font-size="22" fill="#2C2523" text-anchor="middle">Monstera Botanical Bag Charm</text>
  <text x="300" y="700" font-family="sans-serif" font-size="14" fill="#C88A7E" text-anchor="middle">SAGE COTTON</text>
</svg>
